#!OML:ASF Y:\EmotionMaleHayes\Project 1\Capture day 1\Session 1\Male1.ASF
:FULLY-SPECIFIED
:DEGREES
111
root -28.8374 17.2207 -0.485418 31.6576 85.3647 29.4501
lowerback 5.44005 1.9463 -4.7925
upperback 0.629809 2.30744 -0.700821
thorax -2.55972 1.2031 1.78551
lowerneck -23.5746 2.59683 3.19199
upperneck 25.6958 2.99968 -0.996578
head 12.5152 1.58683 -0.373892
rclavicle -8.39865e-015 2.98177e-015
rhumerus -34.8533 5.63395 -88.9144
rradius 33.6113
rwrist 0.230872
rhand -11.527 -30.1208
rfingers 7.12502
rthumb 14.5128 -59.5932
lclavicle -8.39865e-015 2.98177e-015
lhumerus -28.7675 -13.017 92.2958
lradius 24.8976
lwrist -15.359
lhand -13.377 -27.4626
lfingers 7.12502
lthumb 12.7298 2.12942
rfemur 9.83111 -3.813 11.7605
rtibia 1.0517
rfoot -16.1512 -10.1041
rtoes 11.6737
lfemur 11.7491 -1.09697 -14.9156
ltibia -1.93305
lfoot -14.5516 18.7739
ltoes -5.57478
112
root -28.8411 17.2144 -0.485056 29.629 85.2982 27.3069
lowerback 5.32991 1.99371 -4.66817
upperback 0.594492 2.38271 -0.674616
thorax -2.53575 1.23902 1.74005
lowerneck -23.5534 2.58357 3.15339
upperneck 25.6613 2.9906 -0.98221
head 12.496 1.58075 -0.364018
rclavicle -3.18055e-015 -7.25564e-015
rhumerus -34.8297 5.56383 -88.8762
rradius 33.5785
rwrist 0.294591
rhand -11.5234 -30.0966
rfingers 7.12502
rthumb 14.5163 -59.5687
lclavicle -3.18055e-015 -7.25564e-015
lhumerus -28.8068 -13.1372 92.3104
lradius 24.864
lwrist -15.3885
lhand -13.8016 -27.2936
lfingers 7.12502
lthumb 12.3204 2.3234
rfemur 9.6014 -3.79243 11.902
rtibia 1.16326
rfoot -16.1957 -9.9933
rtoes 12.5864
lfemur 11.6883 -1.18208 -14.8296
ltibia -2.00983
lfoot -14.6334 18.9952
ltoes -5.44036
113
root -28.8443 17.2128 -0.488354 28.5914 85.3516 26.258
lowerback 5.36517 1.99475 -4.5052
upperback 0.579017 2.39098 -0.661411
thorax -2.56593 1.24208 1.6605
lowerneck -23.5537 2.59365 3.18694
upperneck 25.6291 3.0014 -1.01793
head 12.4847 1.58342 -0.38156
rclavicle -1.63749e-014 1.26228e-014
rhumerus -34.7866 5.50829 -88.8452
rradius 33.5427
rwrist 0.287374
rhand -11.4881 -30.2265
rfingers 7.12502
rthumb 14.5503 -59.6962
lclavicle -1.63749e-014 1.26228e-014
lhumerus -28.7998 -12.8787 92.1989
lradius 24.8164
lwrist -15.7187
lhand -15.0006 -27.0767
lfingers 7.12502
lthumb 11.1642 2.60628
rfemur 9.56112 -3.75355 12.03
rtibia 1.1963
rfoot -16.2593 -10.0251
rtoes 12.695
lfemur 11.6803 -1.24696 -14.7435
ltibia -2.04354
lfoot -14.5723 19.0839
ltoes -5.9575
114
root -28.8445 17.2106 -0.486644 27.9322 85.3279 25.5529
lowerback 5.3113 2.0028 -4.4962
upperback 0.548754 2.40416 -0.642139
thorax -2.56836 1.24886 1.67548
lowerneck -23.506 2.62291 3.22561
upperneck 25.6208 3.03812 -1.04156
head 12.4741 1.60078 -0.391073
rclavicle 1.7667e-014 -6.16232e-015
rhumerus -34.8317 5.60047 -88.8653
rradius 33.6366
rwrist 0.154605
rhand -11.6262 -30.191
rfingers 7.12502
rthumb 14.4172 -59.6702
lclavicle 1.7667e-014 -6.16232e-015
lhumerus -28.7563 -12.7292 92.1423
lradius 24.6186
lwrist -15.8652
lhand -14.1406 -27.4117
lfingers 7.12502
lthumb 11.9936 2.2247
rfemur 9.5332 -3.62539 12.1353
rtibia 1.15304
rfoot -16.3542 -10.1351
rtoes 12.6512
lfemur 11.6507 -1.11904 -14.6437
ltibia -2.05349
lfoot -14.5255 18.9799
ltoes -5.76112
115
root -28.85 17.2138 -0.492321 26.2165 85.1613 23.9166
lowerback 5.45909 2.07632 -4.37176
upperback 0.530685 2.50035 -0.652721
thorax -2.6701 1.29733 1.58153
lowerneck -23.4404 2.62303 3.26753
upperneck 25.6204 3.03779 -1.07893
head 12.4625 1.6006 -0.412994
rclavicle 1.74309e-014 1.98785e-016
rhumerus -34.9036 5.58326 -88.8627
rradius 33.7453
rwrist 0.184582
rhand -11.7396 -30.1658
rfingers 7.12502
rthumb 14.3079 -59.6529
lclavicle 1.74309e-014 1.98785e-016
lhumerus -28.8441 -12.6945 92.1234
lradius 24.6616
lwrist -15.852
lhand -14.5853 -27.2596
lfingers 7.12502
lthumb 11.5647 2.40135
rfemur 9.47183 -3.68087 12.1286
rtibia 1.29989
rfoot -16.3864 -9.92706
rtoes 12.3547
lfemur 11.7761 -1.15231 -14.6758
ltibia -2.09286
lfoot -14.6569 19.1482
ltoes -5.18118
116
root -28.8448 17.2182 -0.482062 28.6916 85.4934 26.5732
lowerback 5.58312 1.96918 -4.52398
upperback 0.591304 2.34519 -0.623475
thorax -2.67471 1.22156 1.70655
lowerneck -23.4289 2.59612 3.22449
upperneck 25.5983 2.99894 -1.02571
head 12.4487 1.58637 -0.392596
rclavicle 1.60767e-014 -1.39149e-015
rhumerus -34.8412 5.50152 -88.8141
rradius 33.683
rwrist 0.299551
rhand -11.6871 -30.373
rfingers 7.12502
rthumb 14.3585 -59.8564
lclavicle 1.60767e-014 -1.39149e-015
lhumerus -28.9983 -12.7412 92.1342
lradius 24.8642
lwrist -15.6818
lhand -14.2888 -27.012
lfingers 7.12502
lthumb 11.8506 2.63262
rfemur 9.96144 -3.35147 12.2676
rtibia 0.933009
rfoot -16.628 -10.5126
rtoes 13.0709
lfemur 11.852 -0.994181 -14.5457
ltibia -1.96917
lfoot -14.4021 18.657
ltoes -5.95955
117
root -28.8555 17.2144 -0.490169 28.4886 85.219 26.257
lowerback 5.58961 2.06059 -4.54887
upperback 0.518519 2.46083 -0.685589
thorax -2.7594 1.28156 1.6447
lowerneck -23.4061 2.56194 3.15648
upperneck 25.5803 2.94156 -0.91166
head 12.4323 1.57014 -0.348176
rclavicle 9.87711e-015 4.57205e-015
rhumerus -34.7958 5.54323 -88.8249
rradius 33.6021
rwrist 0.277331
rhand -11.7344 -30.6765
rfingers 7.12502
rthumb 14.3129 -60.1632
lclavicle 9.87711e-015 4.57205e-015
lhumerus -29.0988 -12.8259 92.1409
lradius 24.946
lwrist -15.5515
lhand -13.707 -26.9206
lfingers 7.12502
lthumb 12.4116 2.69089
rfemur 9.54888 -3.67684 11.9579
rtibia 1.30673
rfoot -16.5047 -10.007
rtoes 13.2587
lfemur 11.719 -0.994375 -14.7831
ltibia -1.97218
lfoot -14.4406 18.9525
ltoes -6.57751
118
root -28.8563 17.21 -0.487842 29.6728 85.1458 27.3483
lowerback 5.47528 2.0782 -4.68141
upperback 0.486228 2.48051 -0.738534
thorax -2.73333 1.29272 1.66576
lowerneck -23.378 2.53627 3.1889
upperneck 25.5572 2.88396 -0.881852
head 12.4164 1.55211 -0.352703
rclavicle -3.06253e-014 8.74653e-015
rhumerus -34.9085 5.54932 -88.8572
rradius 33.6737
rwrist 0.264604
rhand -11.8167 -30.8639
rfingers 7.12502
rthumb 14.2337 -60.3562
lclavicle -3.06253e-014 8.74653e-015
lhumerus -29.1933 -12.8612 92.1117
lradius 25.005
lwrist -15.5452
lhand -14.1599 -26.8354
lfingers 7.12502
lthumb 11.9749 2.80206
rfemur 9.44231 -3.83681 11.771
rtibia 1.31316
rfoot -16.3274 -9.93484
rtoes 12.3131
lfemur 11.6157 -0.859712 -14.8638
ltibia -1.97452
lfoot -14.395 18.8502
ltoes -6.99885
119
root -28.856 17.2148 -0.491228 30.3859 85.1067 28.1938
lowerback 5.57865 2.09366 -4.68108
upperback 0.539891 2.49659 -0.800748
thorax -2.73389 1.30019 1.59754
lowerneck -23.4541 2.53268 3.26916
upperneck 25.6034 2.84583 -0.881346
head 12.4505 1.54308 -0.37149
rclavicle -1.53188e-014 6.36111e-015
rhumerus -34.9677 5.41572 -88.8428
rradius 33.7515
rwrist 0.371684
rhand -11.8174 -30.7998
rfingers 7.12502
rthumb 14.233 -60.2922
lclavicle -1.53188e-014 6.36111e-015
lhumerus -29.2293 -12.7966 92.0229
lradius 25.0809
lwrist -15.6231
lhand -14.6617 -26.7774
lfingers 7.12502
lthumb 11.491 2.88766
rfemur 9.59723 -3.93028 11.6176
rtibia 1.28963
rfoot -16.2255 -9.8324
rtoes 11.6081
lfemur 11.7949 -0.997669 -15.0337
ltibia -2.04024
lfoot -14.4791 18.9409
ltoes -6.54883
120
root -28.8584 17.2104 -0.492048 30.6746 85.0389 28.3742
lowerback 5.44238 2.1067 -4.70489
upperback 0.520694 2.51892 -0.840004
thorax -2.67812 1.31065 1.57309
lowerneck -23.5435 2.55455 3.32039
upperneck 25.7012 2.8513 -0.862601
head 12.508 1.55367 -0.370366
rclavicle 1.60519e-014 -9.93923e-015
rhumerus -34.9299 5.30492 -88.8562
rradius 33.7109
rwrist 0.505269
rhand -11.852 -30.7943
rfingers 7.12502
rthumb 14.1996 -60.2889
lclavicle 1.60519e-014 -9.93923e-015
lhumerus -29.2439 -12.8154 91.9581
lradius 25.1005
lwrist -15.5981
lhand -15.1671 -26.9501
lfingers 7.12502
lthumb 11.0035 2.74151
rfemur 9.4471 -3.8738 11.5796
rtibia 1.32337
rfoot -16.2832 -9.82602
rtoes 11.7633
lfemur 11.6886 -1.0722 -15.1252
ltibia -2.04798
lfoot -14.5432 19.0793
ltoes -5.94196
121
root -28.8599 17.2106 -0.490814 30.4567 85.0668 28.2035
lowerback 5.48001 2.09843 -4.70356
upperback 0.538262 2.50684 -0.823478
thorax -2.68094 1.30452 1.58941
lowerneck -23.5247 2.57365 3.34556
upperneck 25.6598 2.87711 -0.892438
head 12.4893 1.56296 -0.38189
rclavicle -1.37907e-015 4.96962e-015
rhumerus -34.883 5.31758 -88.8784
rradius 33.6548
rwrist 0.524856
rhand -11.8704 -30.8332
rfingers 7.12502
rthumb 14.1819 -60.3291
lclavicle -1.37907e-015 4.96962e-015
lhumerus -29.2755 -12.8496 91.9397
lradius 25.0911
lwrist -15.5479
lhand -13.9421 -26.9217
lfingers 7.12502
lthumb 12.1849 2.70341
rfemur 9.51941 -3.7727 11.649
rtibia 1.26936
rfoot -16.3594 -9.96535
rtoes 11.8998
lfemur 11.7279 -1.07315 -15.0714
ltibia -2.04259
lfoot -14.5329 19.0733
ltoes -5.83909
122
root -28.8605 17.2125 -0.488915 30.1327 85.1149 27.9346
lowerback 5.52051 2.09687 -4.66889
upperback 0.567429 2.50589 -0.816681
thorax -2.67218 1.30321 1.57636
lowerneck -23.5509 2.57509 3.43696
upperneck 25.6457 2.87971 -1.01622
head 12.4928 1.55541 -0.443792
rclavicle 6.70898e-015 -1.43125e-014
rhumerus -34.8198 5.28254 -88.8661
rradius 33.6048
rwrist 0.512224
rhand -11.8686 -30.7007
rfingers 7.12502
rthumb 14.1836 -60.1965
lclavicle 6.70898e-015 -1.43125e-014
lhumerus -29.2733 -12.8811 91.9028
lradius 25.0222
lwrist -15.5996
lhand -13.9098 -26.9521
lfingers 7.12502
lthumb 12.2161 2.67116
rfemur 9.61762 -3.62231 11.7619
rtibia 1.19786
rfoot -16.4591 -10.1142
rtoes 11.9184
lfemur 11.7691 -0.934633 -14.9568
ltibia -2.02065
lfoot -14.4516 18.9437
ltoes -5.9882
123
root -28.8633 17.2132 -0.492617 29.859 85.1064 27.6721
lowerback 5.56562 2.12377 -4.57032
upperback 0.56066 2.5443 -0.841615
thorax -2.70142 1.32177 1.49064
lowerneck -23.6536 2.55529 3.52426
upperneck 25.7795 2.85873 -1.14695
head 12.5698 1.53757 -0.510341
rclavicle -1.09332e-015 2.14687e-014
rhumerus -34.7998 5.11597 -88.8035
rradius 33.5419
rwrist 0.594088
rhand -11.8457 -30.5315
rfingers 7.12502
rthumb 14.2057 -60.0257
lclavicle -1.09332e-015 2.14687e-014
lhumerus -29.2375 -12.9407 91.8912
lradius 24.8654
lwrist -15.6479
lhand -14.2107 -26.9991
lfingers 7.12502
lthumb 11.9259 2.64118
rfemur 9.5867 -3.77079 11.7194
rtibia 1.26737
rfoot -16.4216 -9.91216
rtoes 11.2294
lfemur 11.7798 -0.922694 -14.9725
ltibia -2.03039
lfoot -14.4693 18.9679
ltoes -6.00049
124
root -28.8625 17.2114 -0.495003 29.2953 85.1856 27.0838
lowerback 5.52244 2.11897 -4.44363
upperback 0.54794 2.54777 -0.809519
thorax -2.68655 1.32185 1.45415
lowerneck -23.6596 2.53144 3.4462
upperneck 25.8207 2.84803 -1.11884
head 12.5852 1.52959 -0.488165
rclavicle -5.49143e-015 7.7526e-015
rhumerus -34.8257 5.01523 -88.7213
rradius 33.507
rwrist 0.665648
rhand -11.8336 -30.3482
rfingers 7.12502
rthumb 14.2174 -59.8416
lclavicle -5.49143e-015 7.7526e-015
lhumerus -29.2068 -12.8482 91.9013
lradius 24.7289
lwrist -15.7309
lhand -14.0357 -27.0711
lfingers 7.12502
lthumb 12.0947 2.55935
rfemur 9.57484 -3.95938 11.7655
rtibia 1.27534
rfoot -16.2489 -9.83886
rtoes 10.7442
lfemur 11.762 -0.948233 -14.8898
ltibia -2.04535
lfoot -14.4466 18.9636
ltoes -6.1956
